<?xml version="1.0" standalone="no"?>
<!DOCTYPE svg PUBLIC "-//W3C//DTD SVG 20010904//EN"
 "http://www.w3.org/TR/2001/REC-SVG-20010904/DTD/svg10.dtd">
<svg version="1.0" xmlns="http://www.w3.org/2000/svg"
 width="294.000000pt" height="320.000000pt" viewBox="0 0 294.000000 320.000000"
 preserveAspectRatio="xMidYMid meet">

<g transform="translate(0.000000,320.000000) scale(0.100000,-0.100000)"
fill="#fff" stroke="none">
<path d="M1250 3194 c-573 -54 -884 -242 -1011 -611 -57 -167 -64 -422 -14
-588 106 -359 445 -791 960 -1220 107 -89 274 -215 285 -215 11 0 178 126 285
215 514 429 849 854 961 1220 26 83 28 102 28 260 -1 150 -4 181 -26 266 -108
401 -427 617 -988 668 -105 10 -395 12 -480 5z m355 -133 c132 -72 203 -281
226 -658 21 -356 -37 -734 -184 -1193 -48 -151 -168 -470 -177 -470 -3 0 -34
75 -70 167 -223 583 -316 1064 -291 1496 23 379 90 578 219 654 85 50 190 52
277 4z m-450 -48 c-140 -237 -183 -758 -100 -1235 41 -238 111 -501 207 -768
22 -63 43 -122 46 -130 3 -8 -34 34 -83 95 -300 375 -504 764 -561 1070 -25
135 -15 385 20 519 65 251 207 410 430 482 39 13 72 23 73 24 1 0 -13 -26 -32
-57z m774 -10 c103 -49 212 -158 264 -264 62 -127 88 -247 94 -439 4 -129 2
-184 -11 -253 -59 -312 -260 -695 -565 -1077 -46 -58 -81 -96 -77 -85 237 660
316 1081 288 1526 -18 289 -60 471 -137 601 l-33 56 51 -15 c29 -8 85 -31 126
-50z m-1157 -58 c-127 -139 -190 -314 -213 -591 -11 -148 -1 -276 37 -423 59
-235 201 -525 388 -794 33 -49 68 -98 76 -110 30 -45 -179 155 -282 270 -200
221 -315 381 -398 556 -79 165 -95 236 -94 407 2 170 21 258 83 385 76 154
228 283 411 351 56 20 55 18 -8 -51z m1457 19 c211 -98 343 -255 402 -479 32
-121 33 -340 1 -450 -64 -221 -215 -459 -469 -738 -111 -122 -314 -316 -283
-270 8 12 43 61 76 110 210 302 359 625 410 888 12 61 17 136 17 230 -2 306
-73 535 -216 691 -69 75 -64 77 62 18z"/>
<path d="M1209 449 c-20 -20 -20 -29 -17 -188 3 -185 9 -204 71 -241 28 -18
51 -20 205 -20 275 0 282 6 282 272 0 165 -1 178 -19 188 -12 6 -114 10 -260
10 -231 0 -242 -1 -262 -21z m451 -203 c0 -162 7 -156 -188 -156 -80 0 -152 5
-163 10 -17 10 -19 22 -19 140 l0 130 185 0 185 0 0 -124z"/>
</g>
</svg>
